<?xml version="1.0" encoding="UTF-8" standalone="no"?>
<!-- Created with Inkscape (http://www.inkscape.org/) -->

<svg
   xmlns:dc="http://purl.org/dc/elements/1.1/"
   xmlns:cc="http://creativecommons.org/ns#"
   xmlns:rdf="http://www.w3.org/1999/02/22-rdf-syntax-ns#"
   xmlns:svg="http://www.w3.org/2000/svg"
   xmlns="http://www.w3.org/2000/svg"
   version="1.1"
   width="575.21832"
   height="576.69641"
   id="svg4289">
  <defs
     id="defs4291" />
  <metadata
     id="metadata4294">
    <rdf:RDF>
      <cc:Work
         rdf:about="">
        <dc:format>image/svg+xml</dc:format>
        <dc:type
           rdf:resource="http://purl.org/dc/dcmitype/StillImage" />
        <dc:title></dc:title>
      </cc:Work>
    </rdf:RDF>
  </metadata>
  <g
     transform="translate(-92.351035,-215.40379)"
     id="layer1">
    <path
       d="m 168.21875,0 c -22.61881,0 -41.25,18.61908 -41.25,41.25 0,22.63092 18.63119,41.25 41.25,41.25 14.77902,0 27.84047,-7.962772 35.125,-19.78125 l 41.15625,0 93.59375,0 90.15625,90.15625 0,93.59375 0,93.59375 -90.15625,90.15625 -93.59375,0 -93.59375,0 L 60.75,340.0625 l 0,-93.59375 0,-47.9375 C 73.63234,191.5263 82.46875,177.83348 82.46875,162.25 82.46875,139.61909 63.83756,121 41.21875,121 18.59993,121 0,139.61909 0,162.25 c 0,15.05283 8.2347516,28.33146 20.40625,35.53125 l 0,48.6875 0,101.96875 0,8.34375 5.90625,5.90625 101.96875,101.96875 5.90625,5.90625 8.34375,0 101.96875,0 101.9375,0 8.375,0 5.90625,-5.90625 101.9375,-101.96875 5.90625,-5.90625 0,-8.34375 0,-101.96875 0,-101.9375 0,-8.375 -5.90625,-5.90625 -101.9375,-101.9375 -5.90625,-5.90625 -8.375,0 -101.9375,0 -39.6875,0 C 197.92091,9.1493953 184.06574,0 168.21875,0 z m 0,25.40625 c 8.8979,0 15.8125,6.94109 15.8125,15.84375 0,8.90266 -6.9146,15.84375 -15.8125,15.84375 -8.8979,0 -15.84375,-6.94109 -15.84375,-15.84375 0,-8.90266 6.94585,-15.84375 15.84375,-15.84375 z m -127,121 c 8.8979,0 15.84375,6.94109 15.84375,15.84375 0,8.90267 -6.94585,15.84375 -15.84375,15.84375 -8.8979,0 -15.8125,-6.94108 -15.8125,-15.84375 0,-8.90266 6.9146,-15.84375 15.8125,-15.84375 z"
       transform="translate(92.351035,215.40379)"
       id="path4215"
       style="font-size:medium;font-style:normal;font-variant:normal;font-weight:normal;font-stretch:normal;text-indent:0;text-align:start;text-decoration:none;line-height:normal;letter-spacing:normal;word-spacing:normal;text-transform:none;direction:ltr;block-progression:tb;writing-mode:lr-tb;text-anchor:start;baseline-shift:baseline;color:#000000;fill:#ff00ff;fill-opacity:1;stroke:none;stroke-width:36.48140335;marker:none;visibility:visible;display:inline;overflow:visible;enable-background:accumulate;font-family:Sans;-inkscape-font-specification:Sans" />
    <path
       d="m 216.03125,349.71875 -5.90625,5.90625 -50.96875,50.96875 -3.21875,3.21875 c -13.89602,-3.8456 -29.44881,-0.36369 -40.28125,10.46875 -15.99391,15.99392 -16.00247,42.34128 0,58.34375 16.00248,16.00248 42.31858,15.99392 58.3125,0 10.83353,-10.83352 14.34291,-26.41998 10.5,-40.3125 l 2.09375,-2.09375 1.09375,-1.09375 45.0625,-45.0625 127.46875,0 66.1875,66.15625 68,68.28125 c -3.78537,13.8638 -0.27601,29.38024 10.53125,40.1875 16.00248,16.00248 42.31858,15.99392 58.3125,0 15.99392,-15.99391 16.00248,-42.31002 0,-58.3125 C 552.37048,495.52673 536.7787,492.05094 522.875,495.90625 L 454.9375,427.75 l -0.0312,0 0,-0.0312 -72.09375,-72.09375 -5.90625,-5.90625 -8.34375,0 -144.1875,0 -8.34375,0 z m -71.21875,83.8125 c 4.02956,0.005 8.03994,1.57118 11.1875,4.71875 6.29513,6.29513 6.32301,16.11448 0.0312,22.40625 -6.29176,6.29176 -16.11112,6.29514 -22.40625,0 -6.29513,-6.29513 -6.32299,-16.11449 -0.0312,-22.40625 3.14588,-3.14588 7.18919,-4.72368 11.21875,-4.71875 z m 389.25,86.09375 c 4.02956,0.005 8.03994,1.57118 11.1875,4.71875 6.29513,6.29513 6.29176,16.11448 0,22.40625 -6.29176,6.29176 -16.07987,6.29514 -22.375,0 -6.29513,-6.29513 -6.32299,-16.14574 -0.0312,-22.4375 3.14588,-3.14588 7.18919,-4.69243 11.21875,-4.6875 z"
       transform="translate(92.351035,215.40379)"
       id="path4265"
       style="font-size:medium;font-style:normal;font-variant:normal;font-weight:normal;font-stretch:normal;text-indent:0;text-align:start;text-decoration:none;line-height:normal;letter-spacing:normal;word-spacing:normal;text-transform:none;direction:ltr;block-progression:tb;writing-mode:lr-tb;text-anchor:start;baseline-shift:baseline;color:#000000;fill:#00ffff;fill-opacity:1;stroke:none;stroke-width:40.33356094;marker:none;visibility:visible;display:inline;overflow:visible;enable-background:accumulate;font-family:Sans;-inkscape-font-specification:Sans" />
    <path
       d="m 448.4375,104.65625 c -10.58267,-0.003 -21.15929,3.9718 -29.15625,11.96875 -10.83353,10.83353 -14.31621,26.41542 -10.46875,40.3125 l -3.1875,3.1875 -98.09375,98.09375 c -13.89708,-3.84746 -29.47897,-0.36478 -40.3125,10.46875 -15.99391,15.99392 -15.97122,42.34128 0.0312,58.34375 16.00248,16.00248 42.31859,15.99392 58.3125,0 10.83244,-10.83244 14.3098,-26.38978 10.46875,-40.28125 l 98.09375,-98.09375 3.21875,-3.21875 c 13.88651,3.83234 29.45391,0.3586 40.28125,-10.46875 15.99392,-15.99392 16.00248,-42.31002 0,-58.3125 -8.00124,-8.00124 -18.60483,-11.99717 -29.1875,-12 z m 0,25.21875 c 4.02956,0.005 8.07119,1.60244 11.21875,4.75 6.29514,6.29513 6.29176,16.08324 0,22.375 -6.29177,6.29176 -16.07987,6.29513 -22.375,0 -6.29515,-6.29513 -6.32301,-16.11449 -0.0312,-22.40625 3.14588,-3.14587 7.15794,-4.72368 11.1875,-4.71875 z M 296.375,281.9375 c 4.02956,0.005 8.07119,1.60242 11.21875,4.75 6.29514,6.29513 6.29176,16.08323 0,22.375 -6.29177,6.29176 -16.11112,6.29514 -22.40625,0 -6.29513,-6.29513 -6.29174,-16.11449 0,-22.40625 3.14588,-3.14588 7.15794,-4.72368 11.1875,-4.71875 z"
       transform="translate(92.351035,215.40379)"
       id="path4269"
       style="font-size:medium;font-style:normal;font-variant:normal;font-weight:normal;font-stretch:normal;text-indent:0;text-align:start;text-decoration:none;line-height:normal;letter-spacing:normal;word-spacing:normal;text-transform:none;direction:ltr;block-progression:tb;writing-mode:lr-tb;text-anchor:start;baseline-shift:baseline;color:#000000;fill:#00ffff;fill-opacity:1;stroke:none;stroke-width:36.48140335;marker:none;visibility:visible;display:inline;overflow:visible;enable-background:accumulate;font-family:Sans;-inkscape-font-specification:Sans" />
  </g>
</svg>
